<?xml version="1.0" encoding="UTF-8" standalone="no"?>
<!DOCTYPE svg PUBLIC "-//W3C//DTD SVG 1.1//EN"
 "http://www.w3.org/Graphics/SVG/1.1/DTD/svg11.dtd">
<!-- Generated by graphviz version 2.43.0 (0)
 -->
<!-- Title: dependency&#45;cruiser output Pages: 1 -->
<svg width="417pt" height="650pt"
 viewBox="0.00 0.00 417.00 650.00" xmlns="http://www.w3.org/2000/svg" xmlns:xlink="http://www.w3.org/1999/xlink">
<g id="graph0" class="graph" transform="scale(1 1) rotate(0) translate(4 646)">
<title>dependency&#45;cruiser output</title>
<polygon fill="white" stroke="transparent" points="-4,4 -4,-646 413,-646 413,4 -4,4"/>
<g id="clust1" class="cluster">
<title>cluster_src</title>
<path fill="#ffffff" stroke="black" stroke-width="2" d="M20,-8C20,-8 389,-8 389,-8 395,-8 401,-14 401,-20 401,-20 401,-622 401,-622 401,-628 395,-634 389,-634 389,-634 20,-634 20,-634 14,-634 8,-628 8,-622 8,-622 8,-20 8,-20 8,-14 14,-8 20,-8"/>
<text text-anchor="middle" x="204.5" y="-622.8" font-family="Helvetica,sans-Serif" font-weight="bold" font-size="9.00">src</text>
</g>
<g id="clust2" class="cluster">
<title>cluster_src/components</title>
<path fill="#ffffff" stroke="black" stroke-width="2" d="M28,-72C28,-72 381,-72 381,-72 387,-72 393,-78 393,-84 393,-84 393,-596 393,-596 393,-602 387,-608 381,-608 381,-608 28,-608 28,-608 22,-608 16,-602 16,-596 16,-596 16,-84 16,-84 16,-78 22,-72 28,-72"/>
<text text-anchor="middle" x="204.5" y="-596.8" font-family="Helvetica,sans-Serif" font-weight="bold" font-size="9.00">components</text>
</g>
<g id="clust3" class="cluster">
<title>cluster_src/components/App</title>
<path fill="#ffffff" stroke="black" stroke-width="2" d="M135.5,-260C135.5,-260 298.5,-260 298.5,-260 304.5,-260 310.5,-266 310.5,-272 310.5,-272 310.5,-480 310.5,-480 310.5,-486 304.5,-492 298.5,-492 298.5,-492 135.5,-492 135.5,-492 129.5,-492 123.5,-486 123.5,-480 123.5,-480 123.5,-272 123.5,-272 123.5,-266 129.5,-260 135.5,-260"/>
<text text-anchor="middle" x="217" y="-480.8" font-family="Helvetica,sans-Serif" font-weight="bold" font-size="9.00">App</text>
</g>
<g id="clust4" class="cluster">
<title>cluster_src/components/App/experiments</title>
<path fill="#ffffff" stroke="black" stroke-width="2" d="M143.5,-324C143.5,-324 200.5,-324 200.5,-324 206.5,-324 212.5,-330 212.5,-336 212.5,-336 212.5,-454 212.5,-454 212.5,-460 206.5,-466 200.5,-466 200.5,-466 143.5,-466 143.5,-466 137.5,-466 131.5,-460 131.5,-454 131.5,-454 131.5,-336 131.5,-336 131.5,-330 137.5,-324 143.5,-324"/>
<text text-anchor="middle" x="172" y="-454.8" font-family="Helvetica,sans-Serif" font-weight="bold" font-size="9.00">experiments</text>
</g>
<g id="clust5" class="cluster">
<title>cluster_src/components/Dashboard</title>
<path fill="#ffffff" stroke="black" stroke-width="2" d="M36,-365C36,-365 103,-365 103,-365 109,-365 115,-371 115,-377 115,-377 115,-405 115,-405 115,-411 109,-417 103,-417 103,-417 36,-417 36,-417 30,-417 24,-411 24,-405 24,-405 24,-377 24,-377 24,-371 30,-365 36,-365"/>
<text text-anchor="middle" x="69.5" y="-405.8" font-family="Helvetica,sans-Serif" font-weight="bold" font-size="9.00">Dashboard</text>
</g>
<g id="clust6" class="cluster">
<title>cluster_src/components/Link</title>
<path fill="#ffffff" stroke="black" stroke-width="2" d="M142.5,-200C142.5,-200 201.5,-200 201.5,-200 207.5,-200 213.5,-206 213.5,-212 213.5,-212 213.5,-240 213.5,-240 213.5,-246 207.5,-252 201.5,-252 201.5,-252 142.5,-252 142.5,-252 136.5,-252 130.5,-246 130.5,-240 130.5,-240 130.5,-212 130.5,-212 130.5,-206 136.5,-200 142.5,-200"/>
<text text-anchor="middle" x="172" y="-240.8" font-family="Helvetica,sans-Serif" font-weight="bold" font-size="9.00">Link</text>
</g>
<g id="clust7" class="cluster">
<title>cluster_src/components/Login</title>
<path fill="#ffffff" stroke="black" stroke-width="2" d="M245.5,-200C245.5,-200 373,-200 373,-200 379,-200 385,-206 385,-212 385,-212 385,-240 385,-240 385,-246 379,-252 373,-252 373,-252 245.5,-252 245.5,-252 239.5,-252 233.5,-246 233.5,-240 233.5,-240 233.5,-212 233.5,-212 233.5,-206 239.5,-200 245.5,-200"/>
<text text-anchor="middle" x="309.25" y="-240.8" font-family="Helvetica,sans-Serif" font-weight="bold" font-size="9.00">Login</text>
</g>
<g id="clust8" class="cluster">
<title>cluster_src/components/Navbar</title>
<path fill="#ffffff" stroke="black" stroke-width="2" d="M44.5,-215C44.5,-215 94.5,-215 94.5,-215 100.5,-215 106.5,-221 106.5,-227 106.5,-227 106.5,-255 106.5,-255 106.5,-261 100.5,-267 94.5,-267 94.5,-267 44.5,-267 44.5,-267 38.5,-267 32.5,-261 32.5,-255 32.5,-255 32.5,-227 32.5,-227 32.5,-221 38.5,-215 44.5,-215"/>
<text text-anchor="middle" x="69.5" y="-255.8" font-family="Helvetica,sans-Serif" font-weight="bold" font-size="9.00">Navbar</text>
</g>
<g id="clust9" class="cluster">
<title>cluster_src/components/Preferences</title>
<path fill="#ffffff" stroke="black" stroke-width="2" d="M136.5,-80C136.5,-80 207.5,-80 207.5,-80 213.5,-80 219.5,-86 219.5,-92 219.5,-92 219.5,-120 219.5,-120 219.5,-126 213.5,-132 207.5,-132 207.5,-132 136.5,-132 136.5,-132 130.5,-132 124.5,-126 124.5,-120 124.5,-120 124.5,-92 124.5,-92 124.5,-86 130.5,-80 136.5,-80"/>
<text text-anchor="middle" x="172" y="-120.8" font-family="Helvetica,sans-Serif" font-weight="bold" font-size="9.00">Preferences</text>
</g>
<g id="clust10" class="cluster">
<title>cluster_src/components/Product</title>
<path fill="#ffffff" stroke="black" stroke-width="2" d="M145,-140C145,-140 299,-140 299,-140 305,-140 311,-146 311,-152 311,-152 311,-180 311,-180 311,-186 305,-192 299,-192 299,-192 145,-192 145,-192 139,-192 133,-186 133,-180 133,-180 133,-152 133,-152 133,-146 139,-140 145,-140"/>
<text text-anchor="middle" x="222" y="-180.8" font-family="Helvetica,sans-Serif" font-weight="bold" font-size="9.00">Product</text>
</g>
<g id="clust11" class="cluster">
<title>cluster_src/components/table</title>
<path fill="#ffffff" stroke="black" stroke-width="2" d="M46.5,-500C46.5,-500 197,-500 197,-500 203,-500 209,-506 209,-512 209,-512 209,-570 209,-570 209,-576 203,-582 197,-582 197,-582 46.5,-582 46.5,-582 40.5,-582 34.5,-576 34.5,-570 34.5,-570 34.5,-512 34.5,-512 34.5,-506 40.5,-500 46.5,-500"/>
<text text-anchor="middle" x="121.75" y="-570.8" font-family="Helvetica,sans-Serif" font-weight="bold" font-size="9.00">table</text>
</g>
<!-- src/components/App/App.css -->
<g id="node1" class="node">
<title>src/components/App/App.css</title>
<g id="a_node1"><a xlink:href="src/components/App/App.css" xlink:title="App.css">
<path fill="#ffffcc" stroke="black" d="M193,-316C193,-316 151,-316 151,-316 148,-316 145,-313 145,-310 145,-310 145,-304 145,-304 145,-301 148,-298 151,-298 151,-298 193,-298 193,-298 196,-298 199,-301 199,-304 199,-304 199,-310 199,-310 199,-313 196,-316 193,-316"/>
<text text-anchor="start" x="154" y="-304.8" font-family="Helvetica,sans-Serif" font-size="9.00">App.css</text>
</a>
</g>
</g>
<!-- src/components/App/App.js -->
<g id="node2" class="node">
<title>src/components/App/App.js</title>
<g id="a_node2"><a xlink:href="src/components/App/App.js" xlink:title="App.js">
<path fill="#ffffcc" stroke="black" d="M193,-286C193,-286 151,-286 151,-286 148,-286 145,-283 145,-280 145,-280 145,-274 145,-274 145,-271 148,-268 151,-268 151,-268 193,-268 193,-268 196,-268 199,-271 199,-274 199,-274 199,-280 199,-280 199,-283 196,-286 193,-286"/>
<text text-anchor="start" x="158" y="-274.8" font-family="Helvetica,sans-Serif" font-size="9.00">App.js</text>
</a>
</g>
</g>
<!-- src/components/Login/Login.js -->
<g id="node3" class="node">
<title>src/components/Login/Login.js</title>
<g id="a_node3"><a xlink:href="src/components/Login/Login.js" xlink:title="Login.js">
<path fill="#ffffcc" stroke="black" d="M289.5,-226C289.5,-226 247.5,-226 247.5,-226 244.5,-226 241.5,-223 241.5,-220 241.5,-220 241.5,-214 241.5,-214 241.5,-211 244.5,-208 247.5,-208 247.5,-208 289.5,-208 289.5,-208 292.5,-208 295.5,-211 295.5,-214 295.5,-214 295.5,-220 295.5,-220 295.5,-223 292.5,-226 289.5,-226"/>
<text text-anchor="start" x="251.5" y="-214.8" font-family="Helvetica,sans-Serif" font-size="9.00">Login.js</text>
</a>
</g>
</g>
<!-- src/components/App/App.js&#45;&gt;src/components/Login/Login.js -->
<g id="edge1" class="edge">
<title>src/components/App/App.js&#45;&gt;src/components/Login/Login.js</title>
<path fill="none" stroke="#000000" stroke-width="2" stroke-opacity="0.200000" d="M196.08,-267.85C204.19,-264.27 213.22,-259.85 221,-255 232.5,-247.83 244.3,-238.15 253.14,-230.36"/>
<polygon fill="#000000" fill-opacity="0.200000" stroke="#000000" stroke-width="2" stroke-opacity="0.200000" points="254.66,-231.81 257.73,-226.25 251.86,-228.69 254.66,-231.81"/>
</g>
<!-- src/components/Navbar/Navbar.js -->
<g id="node4" class="node">
<title>src/components/Navbar/Navbar.js</title>
<g id="a_node4"><a xlink:href="src/components/Navbar/Navbar.js" xlink:title="Navbar.js">
<path fill="#ffffcc" stroke="black" d="M92.5,-241C92.5,-241 46.5,-241 46.5,-241 43.5,-241 40.5,-238 40.5,-235 40.5,-235 40.5,-229 40.5,-229 40.5,-226 43.5,-223 46.5,-223 46.5,-223 92.5,-223 92.5,-223 95.5,-223 98.5,-226 98.5,-229 98.5,-229 98.5,-235 98.5,-235 98.5,-238 95.5,-241 92.5,-241"/>
<text text-anchor="start" x="48.5" y="-229.8" font-family="Helvetica,sans-Serif" font-size="9.00">Navbar.js</text>
</a>
</g>
</g>
<!-- src/components/App/App.js&#45;&gt;src/components/Navbar/Navbar.js -->
<g id="edge2" class="edge">
<title>src/components/App/App.js&#45;&gt;src/components/Navbar/Navbar.js</title>
<path fill="none" stroke="#000000" stroke-width="2" stroke-opacity="0.200000" d="M150.69,-267.91C135.04,-260.9 113.27,-251.15 96.37,-243.58"/>
<polygon fill="#000000" fill-opacity="0.200000" stroke="#000000" stroke-width="2" stroke-opacity="0.200000" points="97.17,-241.64 90.84,-241.11 95.46,-245.48 97.17,-241.64"/>
</g>
<!-- src/components/App/useToken.js -->
<g id="node5" class="node">
<title>src/components/App/useToken.js</title>
<g id="a_node5"><a xlink:href="src/components/App/useToken.js" xlink:title="useToken.js">
<path fill="#ffffcc" stroke="black" d="M296.5,-286C296.5,-286 240.5,-286 240.5,-286 237.5,-286 234.5,-283 234.5,-280 234.5,-280 234.5,-274 234.5,-274 234.5,-271 237.5,-268 240.5,-268 240.5,-268 296.5,-268 296.5,-268 299.5,-268 302.5,-271 302.5,-274 302.5,-274 302.5,-280 302.5,-280 302.5,-283 299.5,-286 296.5,-286"/>
<text text-anchor="start" x="242.5" y="-274.8" font-family="Helvetica,sans-Serif" font-size="9.00">useToken.js</text>
</a>
</g>
</g>
<!-- src/components/App/App.js&#45;&gt;src/components/App/useToken.js -->
<g id="edge3" class="edge">
<title>src/components/App/App.js&#45;&gt;src/components/App/useToken.js</title>
<path fill="none" stroke="#000000" stroke-width="2" stroke-opacity="0.200000" d="M199.07,-277C208.12,-277 218.48,-277 228.35,-277"/>
<polygon fill="#000000" fill-opacity="0.200000" stroke="#000000" stroke-width="2" stroke-opacity="0.200000" points="228.41,-279.1 234.41,-277 228.41,-274.9 228.41,-279.1"/>
</g>
<!-- src/components/Login/Login.css -->
<g id="node14" class="node">
<title>src/components/Login/Login.css</title>
<g id="a_node14"><a xlink:href="src/components/Login/Login.css" xlink:title="Login.css">
<path fill="#ffffcc" stroke="black" d="M371,-226C371,-226 325,-226 325,-226 322,-226 319,-223 319,-220 319,-220 319,-214 319,-214 319,-211 322,-208 325,-208 325,-208 371,-208 371,-208 374,-208 377,-211 377,-214 377,-214 377,-220 377,-220 377,-223 374,-226 371,-226"/>
<text text-anchor="start" x="327" y="-214.8" font-family="Helvetica,sans-Serif" font-size="9.00">Login.css</text>
</a>
</g>
</g>
<!-- src/components/Login/Login.js&#45;&gt;src/components/Login/Login.css -->
<g id="edge7" class="edge">
<title>src/components/Login/Login.js&#45;&gt;src/components/Login/Login.css</title>
<path fill="none" stroke="#000000" stroke-width="2" stroke-opacity="0.200000" d="M295.74,-217C301.22,-217 307.08,-217 312.8,-217"/>
<polygon fill="#000000" fill-opacity="0.200000" stroke="#000000" stroke-width="2" stroke-opacity="0.200000" points="312.93,-219.1 318.93,-217 312.93,-214.9 312.93,-219.1"/>
</g>
<!-- src/components/Navbar/Navbar.js&#45;&gt;src/components/App/App.css -->
<g id="edge8" class="edge">
<title>src/components/Navbar/Navbar.js&#45;&gt;src/components/App/App.css</title>
<path fill="none" stroke="#000000" stroke-width="2" stroke-opacity="0.200000" d="M76.11,-241.13C84.65,-254.26 102.12,-278.4 123,-292 127.83,-295.15 133.37,-297.67 138.93,-299.68"/>
<polygon fill="#000000" fill-opacity="0.200000" stroke="#000000" stroke-width="2" stroke-opacity="0.200000" points="138.58,-301.78 144.93,-301.67 139.89,-297.79 138.58,-301.78"/>
</g>
<!-- src/components/Dashboard/Dashboard.js -->
<g id="node10" class="node">
<title>src/components/Dashboard/Dashboard.js</title>
<g id="a_node10"><a xlink:href="src/components/Dashboard/Dashboard.js" xlink:title="Dashboard.js">
<path fill="#ffffcc" stroke="black" d="M101,-391C101,-391 38,-391 38,-391 35,-391 32,-388 32,-385 32,-385 32,-379 32,-379 32,-376 35,-373 38,-373 38,-373 101,-373 101,-373 104,-373 107,-376 107,-379 107,-379 107,-385 107,-385 107,-388 104,-391 101,-391"/>
<text text-anchor="start" x="40" y="-379.8" font-family="Helvetica,sans-Serif" font-size="9.00">Dashboard.js</text>
</a>
</g>
</g>
<!-- src/components/Navbar/Navbar.js&#45;&gt;src/components/Dashboard/Dashboard.js -->
<g id="edge9" class="edge">
<title>src/components/Navbar/Navbar.js&#45;&gt;src/components/Dashboard/Dashboard.js</title>
<path fill="none" stroke="#000000" stroke-width="2" stroke-opacity="0.200000" d="M69.5,-241.08C69.5,-282.97 69.5,-324.85 69.5,-366.74"/>
<polygon fill="#000000" fill-opacity="0.200000" stroke="#000000" stroke-width="2" stroke-opacity="0.200000" points="67.4,-366.92 69.5,-372.92 71.6,-366.92 67.4,-366.92"/>
</g>
<!-- src/components/Link/LinkPage.js -->
<g id="node13" class="node">
<title>src/components/Link/LinkPage.js</title>
<g id="a_node13"><a xlink:href="src/components/Link/LinkPage.js" xlink:title="LinkPage.js">
<path fill="#ffffcc" stroke="black" d="M199.5,-226C199.5,-226 144.5,-226 144.5,-226 141.5,-226 138.5,-223 138.5,-220 138.5,-220 138.5,-214 138.5,-214 138.5,-211 141.5,-208 144.5,-208 144.5,-208 199.5,-208 199.5,-208 202.5,-208 205.5,-211 205.5,-214 205.5,-214 205.5,-220 205.5,-220 205.5,-223 202.5,-226 199.5,-226"/>
<text text-anchor="start" x="146.5" y="-214.8" font-family="Helvetica,sans-Serif" font-size="9.00">LinkPage.js</text>
</a>
</g>
</g>
<!-- src/components/Navbar/Navbar.js&#45;&gt;src/components/Link/LinkPage.js -->
<g id="edge10" class="edge">
<title>src/components/Navbar/Navbar.js&#45;&gt;src/components/Link/LinkPage.js</title>
<path fill="none" stroke="#000000" stroke-width="2" stroke-opacity="0.200000" d="M98.76,-227.78C109.15,-226.23 121.09,-224.45 132.24,-222.78"/>
<polygon fill="#000000" fill-opacity="0.200000" stroke="#000000" stroke-width="2" stroke-opacity="0.200000" points="132.71,-224.84 138.34,-221.87 132.09,-220.68 132.71,-224.84"/>
</g>
<!-- src/components/Preferences/Preferences.js -->
<g id="node15" class="node">
<title>src/components/Preferences/Preferences.js</title>
<g id="a_node15"><a xlink:href="src/components/Preferences/Preferences.js" xlink:title="Preferences.js">
<path fill="#ffffcc" stroke="black" d="M205.5,-106C205.5,-106 138.5,-106 138.5,-106 135.5,-106 132.5,-103 132.5,-100 132.5,-100 132.5,-94 132.5,-94 132.5,-91 135.5,-88 138.5,-88 138.5,-88 205.5,-88 205.5,-88 208.5,-88 211.5,-91 211.5,-94 211.5,-94 211.5,-100 211.5,-100 211.5,-103 208.5,-106 205.5,-106"/>
<text text-anchor="start" x="140.5" y="-94.8" font-family="Helvetica,sans-Serif" font-size="9.00">Preferences.js</text>
</a>
</g>
</g>
<!-- src/components/Navbar/Navbar.js&#45;&gt;src/components/Preferences/Preferences.js -->
<g id="edge11" class="edge">
<title>src/components/Navbar/Navbar.js&#45;&gt;src/components/Preferences/Preferences.js</title>
<path fill="none" stroke="#000000" stroke-width="2" stroke-opacity="0.200000" d="M98.85,-229.05C105.01,-227.09 110.89,-223.96 115,-219 126.68,-204.9 114.44,-153.18 123,-137 128.91,-125.84 139.37,-116.55 149.02,-109.75"/>
<polygon fill="#000000" fill-opacity="0.200000" stroke="#000000" stroke-width="2" stroke-opacity="0.200000" points="150.46,-111.31 154.27,-106.23 148.12,-107.83 150.46,-111.31"/>
</g>
<!-- src/components/Product/Product.js -->
<g id="node16" class="node">
<title>src/components/Product/Product.js</title>
<g id="a_node16"><a xlink:href="src/components/Product/Product.js" xlink:title="Product.js">
<path fill="#ffffcc" stroke="black" d="M197,-166C197,-166 147,-166 147,-166 144,-166 141,-163 141,-160 141,-160 141,-154 141,-154 141,-151 144,-148 147,-148 147,-148 197,-148 197,-148 200,-148 203,-151 203,-154 203,-154 203,-160 203,-160 203,-163 200,-166 197,-166"/>
<text text-anchor="start" x="149" y="-154.8" font-family="Helvetica,sans-Serif" font-size="9.00">Product.js</text>
</a>
</g>
</g>
<!-- src/components/Navbar/Navbar.js&#45;&gt;src/components/Product/Product.js -->
<g id="edge12" class="edge">
<title>src/components/Navbar/Navbar.js&#45;&gt;src/components/Product/Product.js</title>
<path fill="none" stroke="#000000" stroke-width="2" stroke-opacity="0.200000" d="M98.94,-227.96C104.8,-226.03 110.54,-223.18 115,-219 122.59,-211.88 117.02,-205.51 123,-197 130.47,-186.37 141.46,-176.92 151.04,-169.89"/>
<polygon fill="#000000" fill-opacity="0.200000" stroke="#000000" stroke-width="2" stroke-opacity="0.200000" points="152.51,-171.42 156.19,-166.23 150.08,-167.99 152.51,-171.42"/>
</g>
<!-- src/components/App/experiments/App.test.js -->
<g id="node6" class="node">
<title>src/components/App/experiments/App.test.js</title>
<g id="a_node6"><a xlink:href="src/components/App/experiments/App.test.js" xlink:title="no&#45;orphans">
<path fill="#ccffcc" stroke="orange" d="M198.5,-440C198.5,-440 145.5,-440 145.5,-440 142.5,-440 139.5,-437 139.5,-434 139.5,-434 139.5,-428 139.5,-428 139.5,-425 142.5,-422 145.5,-422 145.5,-422 198.5,-422 198.5,-422 201.5,-422 204.5,-425 204.5,-428 204.5,-428 204.5,-434 204.5,-434 204.5,-437 201.5,-440 198.5,-440"/>
<text text-anchor="start" x="147.5" y="-428.8" font-family="Helvetica,sans-Serif" font-size="9.00" fill="orange">App.test.js</text>
</a>
</g>
</g>
<!-- src/components/App/experiments/App2.js -->
<g id="node7" class="node">
<title>src/components/App/experiments/App2.js</title>
<g id="a_node7"><a xlink:href="src/components/App/experiments/App2.js" xlink:title="no&#45;orphans">
<path fill="#ccffcc" stroke="orange" d="M193,-410C193,-410 151,-410 151,-410 148,-410 145,-407 145,-404 145,-404 145,-398 145,-398 145,-395 148,-392 151,-392 151,-392 193,-392 193,-392 196,-392 199,-395 199,-398 199,-398 199,-404 199,-404 199,-407 196,-410 193,-410"/>
<text text-anchor="start" x="155" y="-398.8" font-family="Helvetica,sans-Serif" font-size="9.00" fill="orange">App2.js</text>
</a>
</g>
</g>
<!-- src/components/App/experiments/App3.js -->
<g id="node8" class="node">
<title>src/components/App/experiments/App3.js</title>
<g id="a_node8"><a xlink:href="src/components/App/experiments/App3.js" xlink:title="no&#45;orphans">
<path fill="#ccffcc" stroke="orange" d="M193,-380C193,-380 151,-380 151,-380 148,-380 145,-377 145,-374 145,-374 145,-368 145,-368 145,-365 148,-362 151,-362 151,-362 193,-362 193,-362 196,-362 199,-365 199,-368 199,-368 199,-374 199,-374 199,-377 196,-380 193,-380"/>
<text text-anchor="start" x="155" y="-368.8" font-family="Helvetica,sans-Serif" font-size="9.00" fill="orange">App3.js</text>
</a>
</g>
</g>
<!-- src/components/App/experiments/App9.js -->
<g id="node9" class="node">
<title>src/components/App/experiments/App9.js</title>
<g id="a_node9"><a xlink:href="src/components/App/experiments/App9.js" xlink:title="no&#45;orphans">
<path fill="#ccffcc" stroke="orange" d="M193,-350C193,-350 151,-350 151,-350 148,-350 145,-347 145,-344 145,-344 145,-338 145,-338 145,-335 148,-332 151,-332 151,-332 193,-332 193,-332 196,-332 199,-335 199,-338 199,-338 199,-344 199,-344 199,-347 196,-350 193,-350"/>
<text text-anchor="start" x="155" y="-338.8" font-family="Helvetica,sans-Serif" font-size="9.00" fill="orange">App9.js</text>
</a>
</g>
</g>
<!-- src/components/Dashboard/Dashboard.js&#45;&gt;src/components/App/App.css -->
<g id="edge4" class="edge">
<title>src/components/Dashboard/Dashboard.js&#45;&gt;src/components/App/App.css</title>
<path fill="none" stroke="#000000" stroke-width="2" stroke-opacity="0.200000" d="M76.04,-372.66C84.49,-359.24 101.85,-334.61 123,-321 127.82,-317.89 133.36,-315.46 138.91,-313.56"/>
<polygon fill="#000000" fill-opacity="0.200000" stroke="#000000" stroke-width="2" stroke-opacity="0.200000" points="139.81,-315.48 144.91,-311.69 138.56,-311.47 139.81,-315.48"/>
</g>
<!-- src/components/table/data.json -->
<g id="node11" class="node">
<title>src/components/table/data.json</title>
<g id="a_node11"><a xlink:href="src/components/table/data.json" xlink:title="data.json">
<path fill="#ffee44" stroke="black" d="M195,-526C195,-526 149,-526 149,-526 146,-526 143,-523 143,-520 143,-520 143,-514 143,-514 143,-511 146,-508 149,-508 149,-508 195,-508 195,-508 198,-508 201,-511 201,-514 201,-514 201,-520 201,-520 201,-523 198,-526 195,-526"/>
<text text-anchor="start" x="151" y="-514.8" font-family="Helvetica,sans-Serif" font-size="9.00">data.json</text>
</a>
</g>
</g>
<!-- src/components/Dashboard/Dashboard.js&#45;&gt;src/components/table/data.json -->
<g id="edge5" class="edge">
<title>src/components/Dashboard/Dashboard.js&#45;&gt;src/components/table/data.json</title>
<path fill="none" stroke="#000000" stroke-width="2" stroke-opacity="0.200000" d="M75.05,-391.1C83.43,-407.47 102.34,-442.61 123,-469 132.86,-481.6 145.77,-494.34 155.71,-503.52"/>
<polygon fill="#000000" fill-opacity="0.200000" stroke="#000000" stroke-width="2" stroke-opacity="0.200000" points="154.48,-505.24 160.33,-507.73 157.31,-502.14 154.48,-505.24"/>
</g>
<!-- src/components/table/form.jsx -->
<g id="node12" class="node">
<title>src/components/table/form.jsx</title>
<g id="a_node12"><a xlink:href="src/components/table/form.jsx" xlink:title="form.jsx">
<path fill="#ffff77" stroke="black" d="M90.5,-526C90.5,-526 48.5,-526 48.5,-526 45.5,-526 42.5,-523 42.5,-520 42.5,-520 42.5,-514 42.5,-514 42.5,-511 45.5,-508 48.5,-508 48.5,-508 90.5,-508 90.5,-508 93.5,-508 96.5,-511 96.5,-514 96.5,-514 96.5,-520 96.5,-520 96.5,-523 93.5,-526 90.5,-526"/>
<text text-anchor="start" x="51" y="-514.8" font-family="Helvetica,sans-Serif" font-size="9.00">form.jsx</text>
</a>
</g>
</g>
<!-- src/components/Dashboard/Dashboard.js&#45;&gt;src/components/table/form.jsx -->
<g id="edge6" class="edge">
<title>src/components/Dashboard/Dashboard.js&#45;&gt;src/components/table/form.jsx</title>
<path fill="none" stroke="#000000" stroke-width="2" stroke-opacity="0.200000" d="M69.5,-391.23C69.5,-427.92 69.5,-464.61 69.5,-501.3"/>
<polygon fill="#000000" fill-opacity="0.200000" stroke="#000000" stroke-width="2" stroke-opacity="0.200000" points="67.4,-501.67 69.5,-507.67 71.6,-501.67 67.4,-501.67"/>
</g>
<!-- src/components/table/form.jsx&#45;&gt;src/components/App/App.css -->
<g id="edge14" class="edge">
<title>src/components/table/form.jsx&#45;&gt;src/components/App/App.css</title>
<path fill="none" stroke="#000000" stroke-width="2" stroke-opacity="0.200000" d="M76.08,-507.77C85.9,-490.99 106.11,-454.06 115,-420 120.58,-398.64 109.06,-338.11 123,-321 127.03,-316.05 132.7,-312.79 138.74,-310.66"/>
<polygon fill="#000000" fill-opacity="0.200000" stroke="#000000" stroke-width="2" stroke-opacity="0.200000" points="139.68,-312.57 144.86,-308.88 138.51,-308.54 139.68,-312.57"/>
</g>
<!-- src/components/table/form.jsx&#45;&gt;src/components/table/data.json -->
<g id="edge15" class="edge">
<title>src/components/table/form.jsx&#45;&gt;src/components/table/data.json</title>
<path fill="none" stroke="#000000" stroke-width="2" stroke-opacity="0.200000" d="M96.64,-517C108.84,-517 123.52,-517 136.6,-517"/>
<polygon fill="#000000" fill-opacity="0.200000" stroke="#000000" stroke-width="2" stroke-opacity="0.200000" points="136.87,-519.1 142.87,-517 136.87,-514.9 136.87,-519.1"/>
</g>
<!-- src/components/table/table.jsx -->
<g id="node18" class="node">
<title>src/components/table/table.jsx</title>
<g id="a_node18"><a xlink:href="src/components/table/table.jsx" xlink:title="table.jsx">
<path fill="#ffff77" stroke="black" d="M193,-556C193,-556 151,-556 151,-556 148,-556 145,-553 145,-550 145,-550 145,-544 145,-544 145,-541 148,-538 151,-538 151,-538 193,-538 193,-538 196,-538 199,-541 199,-544 199,-544 199,-550 199,-550 199,-553 196,-556 193,-556"/>
<text text-anchor="start" x="153" y="-544.8" font-family="Helvetica,sans-Serif" font-size="9.00">table.jsx</text>
</a>
</g>
</g>
<!-- src/components/table/form.jsx&#45;&gt;src/components/table/table.jsx -->
<g id="edge16" class="edge">
<title>src/components/table/form.jsx&#45;&gt;src/components/table/table.jsx</title>
<path fill="none" stroke="#000000" stroke-width="2" stroke-opacity="0.200000" d="M96.64,-524.8C109.55,-528.66 125.25,-533.34 138.88,-537.41"/>
<polygon fill="#000000" fill-opacity="0.200000" stroke="#000000" stroke-width="2" stroke-opacity="0.200000" points="138.64,-539.53 144.99,-539.24 139.84,-535.51 138.64,-539.53"/>
</g>
<!-- src/components/Product/Product.css -->
<g id="node17" class="node">
<title>src/components/Product/Product.css</title>
<g id="a_node17"><a xlink:href="src/components/Product/Product.css" xlink:title="Product.css">
<path fill="#ffffcc" stroke="black" d="M297,-166C297,-166 240,-166 240,-166 237,-166 234,-163 234,-160 234,-160 234,-154 234,-154 234,-151 237,-148 240,-148 240,-148 297,-148 297,-148 300,-148 303,-151 303,-154 303,-154 303,-160 303,-160 303,-163 300,-166 297,-166"/>
<text text-anchor="start" x="242" y="-154.8" font-family="Helvetica,sans-Serif" font-size="9.00">Product.css</text>
</a>
</g>
</g>
<!-- src/components/Product/Product.js&#45;&gt;src/components/Product/Product.css -->
<g id="edge13" class="edge">
<title>src/components/Product/Product.js&#45;&gt;src/components/Product/Product.css</title>
<path fill="none" stroke="#000000" stroke-width="2" stroke-opacity="0.200000" d="M203.16,-157C210.91,-157 219.36,-157 227.52,-157"/>
<polygon fill="#000000" fill-opacity="0.200000" stroke="#000000" stroke-width="2" stroke-opacity="0.200000" points="227.69,-159.1 233.69,-157 227.69,-154.9 227.69,-159.1"/>
</g>
<!-- src/index.css -->
<g id="node19" class="node">
<title>src/index.css</title>
<g id="a_node19"><a xlink:href="src/index.css" xlink:title="index.css">
<path fill="#ffffcc" stroke="black" d="M195.5,-34C195.5,-34 148.5,-34 148.5,-34 145.5,-34 142.5,-31 142.5,-28 142.5,-28 142.5,-22 142.5,-22 142.5,-19 145.5,-16 148.5,-16 148.5,-16 195.5,-16 195.5,-16 198.5,-16 201.5,-19 201.5,-22 201.5,-22 201.5,-28 201.5,-28 201.5,-31 198.5,-34 195.5,-34"/>
<text text-anchor="start" x="150.5" y="-22.8" font-family="Helvetica,sans-Serif" font-size="9.00">index.css</text>
</a>
</g>
</g>
<!-- src/index.js -->
<g id="node20" class="node">
<title>src/index.js</title>
<g id="a_node20"><a xlink:href="src/index.js" xlink:title="index.js">
<path fill="#ffffcc" stroke="black" d="M90.5,-64C90.5,-64 48.5,-64 48.5,-64 45.5,-64 42.5,-61 42.5,-58 42.5,-58 42.5,-52 42.5,-52 42.5,-49 45.5,-46 48.5,-46 48.5,-46 90.5,-46 90.5,-46 93.5,-46 96.5,-49 96.5,-52 96.5,-52 96.5,-58 96.5,-58 96.5,-61 93.5,-64 90.5,-64"/>
<text text-anchor="start" x="52" y="-52.8" font-family="Helvetica,sans-Serif" font-size="9.00">index.js</text>
</a>
</g>
</g>
<!-- src/index.js&#45;&gt;src/components/App/App.js -->
<g id="edge17" class="edge">
<title>src/index.js&#45;&gt;src/components/App/App.js</title>
<path fill="none" stroke="#000000" stroke-width="2" stroke-opacity="0.200000" d="M73.41,-64.12C80.99,-88.14 101.69,-155.18 115,-212 119.43,-230.93 111.04,-239.67 123,-255 127.19,-260.37 132.98,-264.47 139.11,-267.6"/>
<polygon fill="#000000" fill-opacity="0.200000" stroke="#000000" stroke-width="2" stroke-opacity="0.200000" points="138.45,-269.61 144.78,-270.2 140.2,-265.79 138.45,-269.61"/>
</g>
<!-- src/index.js&#45;&gt;src/index.css -->
<g id="edge18" class="edge">
<title>src/index.js&#45;&gt;src/index.css</title>
<path fill="none" stroke="#000000" stroke-width="2" stroke-opacity="0.200000" d="M96.64,-47.2C108.75,-43.58 123.3,-39.24 136.31,-35.36"/>
<polygon fill="#000000" fill-opacity="0.200000" stroke="#000000" stroke-width="2" stroke-opacity="0.200000" points="137.01,-37.34 142.16,-33.61 135.81,-33.31 137.01,-37.34"/>
</g>
<!-- src/reportWebVitals.js -->
<g id="node21" class="node">
<title>src/reportWebVitals.js</title>
<g id="a_node21"><a xlink:href="src/reportWebVitals.js" xlink:title="reportWebVitals.js">
<path fill="#ffffcc" stroke="black" d="M215,-64C215,-64 129,-64 129,-64 126,-64 123,-61 123,-58 123,-58 123,-52 123,-52 123,-49 126,-46 129,-46 129,-46 215,-46 215,-46 218,-46 221,-49 221,-52 221,-52 221,-58 221,-58 221,-61 218,-64 215,-64"/>
<text text-anchor="start" x="131" y="-52.8" font-family="Helvetica,sans-Serif" font-size="9.00">reportWebVitals.js</text>
</a>
</g>
</g>
<!-- src/index.js&#45;&gt;src/reportWebVitals.js -->
<g id="edge19" class="edge">
<title>src/index.js&#45;&gt;src/reportWebVitals.js</title>
<path fill="none" stroke="#000000" stroke-width="2" stroke-opacity="0.200000" d="M96.64,-55C102.79,-55 109.56,-55 116.45,-55"/>
<polygon fill="#000000" fill-opacity="0.200000" stroke="#000000" stroke-width="2" stroke-opacity="0.200000" points="116.78,-57.1 122.78,-55 116.78,-52.9 116.78,-57.1"/>
</g>
<!-- src/setupTests.js -->
<g id="node22" class="node">
<title>src/setupTests.js</title>
<g id="a_node22"><a xlink:href="src/setupTests.js" xlink:title="no&#45;orphans">
<path fill="#ccffcc" stroke="orange" d="M100.5,-34C100.5,-34 38.5,-34 38.5,-34 35.5,-34 32.5,-31 32.5,-28 32.5,-28 32.5,-22 32.5,-22 32.5,-19 35.5,-16 38.5,-16 38.5,-16 100.5,-16 100.5,-16 103.5,-16 106.5,-19 106.5,-22 106.5,-22 106.5,-28 106.5,-28 106.5,-31 103.5,-34 100.5,-34"/>
<text text-anchor="start" x="40.5" y="-22.8" font-family="Helvetica,sans-Serif" font-size="9.00" fill="orange">setupTests.js</text>
</a>
</g>
</g>
</g>
</svg>
